<svg fill="none" height="62" viewBox="0 0 232 62" width="232" xmlns="http://www.w3.org/2000/svg" xmlns:xlink="http://www.w3.org/1999/xlink"><linearGradient id="a"><stop offset=".018431" stop-color="#00f100"/><stop offset=".404373" stop-color="#00be00"/><stop offset="1" stop-color="#008b00"/></linearGradient><linearGradient id="b" gradientUnits="userSpaceOnUse" x1="7.43002" x2="38.618" xlink:href="#a" y1="6.44676" y2="53.4119"/><radialGradient id="c" cx="0" cy="0" gradientTransform="matrix(15.50056129 23.54456801 -18.36055176 12.0876653 22.9306 29.9914)" gradientUnits="userSpaceOnUse" r="1" xlink:href="#a"/><path d="m46.9933 28.5195c.0256-.2625-.0206-.5301-.1642-.7719-.354-.6176-1.1389-.8286-1.7545-.4735l-4.7558 2.7533c-.6156.3551-.826 1.1425-.472 1.76.236.4118.6669.6433 1.1133.6433.2154 0 .436-.0566.6413-.1698l2.8319-1.6417v12.6498l-17.5456 10.164c-.8465-.916-2.0469-1.4924-3.3859-1.4924s-2.5447.5764-3.386 1.4924l-16.30401-9.4435 6.36151-3.6848 12.6872 7.349c.0769.0411.159.072.2411.0977.1283.0412.2616.0721.395.0721s.2668-.0257.3951-.0721c.082-.0257.1641-.0566.2411-.0977l13.3233-7.6681c.0872-.0515.1642-.1184.236-.1853.0205-.0206.0359-.0411.0564-.0617.0565-.0618.1026-.1235.1488-.1904.0103-.0155.0205-.0258.0308-.0412.0051-.0103.0103-.0258.0154-.036.0205-.0412.041-.0824.0564-.1236.0154-.036.0308-.072.0411-.1132.0102-.0411.0205-.0823.0256-.1235.0103-.0412.0154-.0823.0205-.1235 0-.0412 0-.0823 0-.1235s0-.0824 0-.1235c0-.0412-.0102-.0824-.0205-.1235-.0103-.0412-.0154-.0824-.0256-.1236-.0103-.036-.0257-.072-.0411-.108-.0154-.0412-.0359-.0875-.0564-.1287-.0051-.0103-.0103-.0257-.0154-.036-.0103-.0206-.0308-.036-.0411-.0566-.0256-.0412-.0513-.0772-.082-.1132-.0257-.0309-.0565-.0618-.0821-.0927-.0257-.0309-.0565-.0566-.0924-.0823-.0359-.0309-.0769-.0566-.1128-.0824-.0206-.0154-.0359-.0308-.0565-.0411l-7.8544-4.5494c.2155-.6484.3386-1.3381.3386-2.0534 0-3.5716-2.8935-6.4741-6.4539-6.4741-1.9187 0-3.6425.8491-4.8276 2.1923l-5.9357-3.4377 10.7633-6.222 12.4307 7.1998c.2411.2418.5694.3705.9029.3705.2154 0 .436-.0566.6413-.1698l8.8856-5.1464c.4207-.2419.6464-.6896.6361-1.1476.0103-.4529-.2154-.9006-.6361-1.1477l-18.3766-10.64264c.0872-.3551.1385-.72564.1385-1.10647 0-2.55259-2.0727-4.631723-4.6173-4.631723s-4.6172 2.079133-4.6172 4.631723c0 .38083.0513.75137.1385 1.10647l-18.376616 10.64264c-.410422.2368-.63615655.6691-.63615655 1.1116 0 .0155-.00512745.0361-.00512745.0515v15.3928s.00512745.0463.00512745.0669c-.02052105.2521.02565515.5198.16417255.7565.235992.4117.666934.6433 1.11327.6433.21547 0 .43607-.0566.64128-.1698l4.75576-2.7533c.61563-.3551.82597-1.1425.47198-1.7601s-1.13892-.8234-1.75455-.4735l-2.8319 1.6417v-12.6497l17.73536-10.27217c.8311.80283 1.9546 1.29687 3.1961 1.29687 1.2416 0 2.3651-.49404 3.1962-1.29687l16.5092 9.56197-6.3359 3.6693-12.7282-7.3696s-.0256-.0103-.041-.0154c-.0411-.0206-.0821-.0412-.1231-.0566-.036-.0155-.077-.0309-.1129-.0412-.0411-.0103-.077-.0206-.118-.0257-.0411-.0103-.0821-.0155-.1231-.0206-.0411 0-.0821 0-.1232 0-.041 0-.0821 0-.118 0-.041 0-.0872.0154-.1282.0206-.0411.0103-.077.0154-.118.0257-.0411.0103-.077.0257-.1129.0412-.041.0154-.0821.036-.1231.0566-.0103.0051-.0257.0103-.0359.0154l-13.02577 7.5292c-.05131.0308-.09748.0669-.14365.1029-.25651.1029-.48225.283-.63103.5455-.35399.6176-.14364 1.3998.47199 1.7601l7.85446 4.5493c-.2155.6485-.3386 1.3381-.3386 2.0534 0 3.5665 2.8935 6.4742 6.4539 6.4742 1.9187 0 3.6425-.8492 4.8276-2.1924l5.9305 3.4378-10.7581 6.1911-12.6872-7.3491s-.0256-.0102-.041-.0154c-.0411-.0206-.0821-.036-.1232-.0566-.0359-.0154-.0769-.0309-.1128-.0412s-.077-.0206-.118-.0257c-.0411-.0103-.0821-.0154-.1283-.0206-.041 0-.0821 0-.1231 0-.0411 0-.0821 0-.1231 0-.0411 0-.08724.0154-.12829.0206-.04104.0103-.07695.0154-.11286.0257-.04105.0103-.07696.0258-.11801.0463-.04104.0155-.08208.0309-.11799.0515-.01539.0052-.02565.0103-.04104.0206l-8.885626 5.1464c-.415552.2418-.64128682.6844-.63615655 1.1373-.00513027.4529.21547455.8955.63615655 1.1373l18.315016 10.6067c-.0513.2728-.0769.5507-.0769.8337 0 2.5526 2.0726 4.6317 4.6172 4.6317s4.6173-2.0791 4.6173-4.6317c0-.283-.0308-.5609-.077-.8337l18.3202-10.6067c.3951-.2315.6413-.6535.6413-1.1167v-15.3928c0-.036-.0051-.0669-.0103-.0978zm-23.4864-21.04861c-1.1338 0-2.0521-.9212-2.0521-2.05855 0-1.13734.9183-2.05854 2.0521-2.05854s2.0521.9212 2.0521 2.05854c0 1.13735-.9183 2.05855-2.0521 2.05855zm0 27.05961c-1.8623 0-3.3757-1.5182-3.3757-3.3864 0-1.8681 1.5134-3.3863 3.3757-3.3863s3.3757 1.5182 3.3757 3.3863c0 1.8682-1.5134 3.3864-3.3757 3.3864zm0 24.0952c-1.1338 0-2.0521-.9212-2.0521-2.0585 0-1.1374.9183-2.0586 2.0521-2.0586s2.0521.9212 2.0521 2.0586c0 1.1373-.9183 2.0585-2.0521 2.0585z" fill="url(#b)"/><path d="m46.9933 28.5195c.0256-.2625-.0206-.5301-.1642-.7719-.354-.6176-1.1389-.8286-1.7545-.4735l-4.7558 2.7533c-.6156.3551-.826 1.1425-.472 1.76.236.4118.6669.6433 1.1133.6433.2154 0 .436-.0566.6413-.1698l2.8319-1.6417v12.6498l-17.5456 10.164c-.8465-.916-2.0469-1.4924-3.3859-1.4924s-2.5447.5764-3.386 1.4924l-16.30401-9.4435 6.36151-3.6848 12.6872 7.349c.0769.0411.159.072.2411.0977.1283.0412.2616.0721.395.0721s.2668-.0257.3951-.0721c.082-.0257.1641-.0566.2411-.0977l13.3233-7.6681c.0872-.0515.1642-.1184.236-.1853.0205-.0206.0359-.0411.0564-.0617.0565-.0618.1026-.1235.1488-.1904.0103-.0155.0205-.0258.0308-.0412.0051-.0103.0103-.0258.0154-.036.0205-.0412.041-.0824.0564-.1236.0154-.036.0308-.072.0411-.1132.0102-.0411.0205-.0823.0256-.1235.0103-.0412.0154-.0823.0205-.1235 0-.0412 0-.0823 0-.1235s0-.0824 0-.1235c0-.0412-.0102-.0824-.0205-.1235-.0103-.0412-.0154-.0824-.0256-.1236-.0103-.036-.0257-.072-.0411-.108-.0154-.0412-.0359-.0875-.0564-.1287-.0051-.0103-.0103-.0257-.0154-.036-.0103-.0206-.0308-.036-.0411-.0566-.0256-.0412-.0513-.0772-.082-.1132-.0257-.0309-.0565-.0618-.0821-.0927-.0257-.0309-.0565-.0566-.0924-.0823-.0359-.0309-.0769-.0566-.1128-.0824-.0206-.0154-.0359-.0308-.0565-.0411l-7.8544-4.5494c.2155-.6484.3386-1.3381.3386-2.0534 0-3.5716-2.8935-6.4741-6.4539-6.4741-1.9187 0-3.6425.8491-4.8276 2.1923l-5.9357-3.4377 10.7633-6.222 12.4307 7.1998c.2411.2418.5694.3705.9029.3705.2154 0 .436-.0566.6413-.1698l8.8856-5.1464c.4207-.2419.6464-.6896.6361-1.1476.0103-.4529-.2154-.9006-.6361-1.1477l-18.3766-10.64264c.0872-.3551.1385-.72564.1385-1.10647 0-2.55259-2.0727-4.631723-4.6173-4.631723s-4.6172 2.079133-4.6172 4.631723c0 .38083.0513.75137.1385 1.10647l-18.376616 10.64264c-.410422.2368-.63615655.6691-.63615655 1.1116 0 .0155-.00512745.0361-.00512745.0515v15.3928s.00512745.0463.00512745.0669c-.02052105.2521.02565515.5198.16417255.7565.235992.4117.666934.6433 1.11327.6433.21547 0 .43607-.0566.64128-.1698l4.75576-2.7533c.61563-.3551.82597-1.1425.47198-1.7601s-1.13892-.8234-1.75455-.4735l-2.8319 1.6417v-12.6497l17.73536-10.27217c.8311.80283 1.9546 1.29687 3.1961 1.29687 1.2416 0 2.3651-.49404 3.1962-1.29687l16.5092 9.56197-6.3359 3.6693-12.7282-7.3696s-.0256-.0103-.041-.0154c-.0411-.0206-.0821-.0412-.1231-.0566-.036-.0155-.077-.0309-.1129-.0412-.0411-.0103-.077-.0206-.118-.0257-.0411-.0103-.0821-.0155-.1231-.0206-.0411 0-.0821 0-.1232 0-.041 0-.0821 0-.118 0-.041 0-.0872.0154-.1282.0206-.0411.0103-.077.0154-.118.0257-.0411.0103-.077.0257-.1129.0412-.041.0154-.0821.036-.1231.0566-.0103.0051-.0257.0103-.0359.0154l-13.02577 7.5292c-.05131.0308-.09748.0669-.14365.1029-.25651.1029-.48225.283-.63103.5455-.35399.6176-.14364 1.3998.47199 1.7601l7.85446 4.5493c-.2155.6485-.3386 1.3381-.3386 2.0534 0 3.5665 2.8935 6.4742 6.4539 6.4742 1.9187 0 3.6425-.8492 4.8276-2.1924l5.9305 3.4378-10.7581 6.1911-12.6872-7.3491s-.0256-.0102-.041-.0154c-.0411-.0206-.0821-.036-.1232-.0566-.0359-.0154-.0769-.0309-.1128-.0412s-.077-.0206-.118-.0257c-.0411-.0103-.0821-.0154-.1283-.0206-.041 0-.0821 0-.1231 0-.0411 0-.0821 0-.1231 0-.0411 0-.08724.0154-.12829.0206-.04104.0103-.07695.0154-.11286.0257-.04105.0103-.07696.0258-.11801.0463-.04104.0155-.08208.0309-.11799.0515-.01539.0052-.02565.0103-.04104.0206l-8.885626 5.1464c-.415552.2418-.64128682.6844-.63615655 1.1373-.00513027.4529.21547455.8955.63615655 1.1373l18.315016 10.6067c-.0513.2728-.0769.5507-.0769.8337 0 2.5526 2.0726 4.6317 4.6172 4.6317s4.6173-2.0791 4.6173-4.6317c0-.283-.0308-.5609-.077-.8337l18.3202-10.6067c.3951-.2315.6413-.6535.6413-1.1167v-15.3928c0-.036-.0051-.0669-.0103-.0978zm-23.4864-21.04861c-1.1338 0-2.0521-.9212-2.0521-2.05855 0-1.13734.9183-2.05854 2.0521-2.05854s2.0521.9212 2.0521 2.05854c0 1.13735-.9183 2.05855-2.0521 2.05855zm0 27.05961c-1.8623 0-3.3757-1.5182-3.3757-3.3864 0-1.8681 1.5134-3.3863 3.3757-3.3863s3.3757 1.5182 3.3757 3.3863c0 1.8682-1.5134 3.3864-3.3757 3.3864zm0 24.0952c-1.1338 0-2.0521-.9212-2.0521-2.0585 0-1.1374.9183-2.0586 2.0521-2.0586s2.0521.9212 2.0521 2.0586c0 1.1373-.9183 2.0585-2.0521 2.0585z" fill="url(#c)" fill-opacity=".3"/><path d="m67.016 40.336c-3.384 0-5.784-1.824-6.72-4.632l1.776-.792c.888 2.376 2.64 3.552 5.04 3.552 2.496 0 4.152-1.056 4.152-2.928 0-1.752-.96-2.616-4.464-3.72-3.696-1.128-5.904-2.136-5.904-5.208 0-2.712 2.328-4.704 5.712-4.704s5.352 1.728 6.264 3.984l-1.68.936c-.96-2.136-2.496-3-4.608-3-2.256 0-3.6 1.104-3.6 2.616 0 1.896 1.2 2.52 4.68 3.624 3.576 1.104 5.688 2.304 5.688 5.328 0 2.928-2.568 4.944-6.336 4.944zm17.5502-.336v-7.776l-5.976-9.984h2.256l4.824 8.184 4.8-8.184h2.208l-6 9.984v7.776zm15.1406 0v-17.76h2.2322l9.336 14.04h.048v-14.04h1.992v17.76h-1.896l-9.672-14.424h-.048v14.424zm28.9682.336c-4.512 0-7.536-3.48-7.536-9.288 0-5.544 3.096-9.144 7.536-9.144 3.768 0 5.76 2.184 6.576 5.448l-2.016.552c-.768-2.688-1.992-4.056-4.584-4.056-3.312 0-5.376 2.784-5.376 7.176 0 4.704 2.112 7.392 5.424 7.392 2.52 0 4.08-1.416 4.824-4.296l1.992.456c-.864 3.504-3.12 5.76-6.84 5.76zm14.57-.336v-17.76h6.024c3.84 0 6.408 1.512 6.408 5.04 0 3.792-2.832 5.208-6.552 5.208h-3.768v7.512zm2.112-9.384h3.888c2.832 0 4.344-.864 4.344-3.264 0-2.28-1.488-3.192-4.368-3.192h-3.864zm24.61 9.72c-4.392 0-7.68-3.504-7.68-9.216s3.288-9.216 7.68-9.216 7.632 3.504 7.632 9.216-3.24 9.216-7.632 9.216zm0-1.896c3.216 0 5.52-2.688 5.52-7.32s-2.304-7.296-5.52-7.296c-3.264 0-5.544 2.664-5.544 7.296s2.28 7.32 5.544 7.32zm15.721 1.56v-17.76h2.112v17.76zm11.041 0v-17.76h2.232l9.336 14.04h.048v-14.04h1.992v17.76h-1.896l-9.672-14.424h-.048v14.424zm26.52 0v-15.816h-5.64v-1.944h13.416v1.944h-5.664v15.816z" fill="#fff"/></svg>