<?xml version="1.0" encoding="UTF-8"?>
<svg id="Layer_1" data-name="Layer 1" xmlns="http://www.w3.org/2000/svg" xmlns:xlink="http://www.w3.org/1999/xlink" version="1.1" viewBox="0 0 2000 2000">
  <defs>
    <style>
      .cls-1 {
        fill: url(#linear-gradient);
      }

      .cls-1, .cls-2, .cls-3 {
        stroke-width: 0px;
      }

      .cls-2 {
        fill: url(#linear-gradient-2);
      }

      .cls-3 {
        fill: url(#linear-gradient-3);
      }
    </style>
    <linearGradient id="linear-gradient" x1="471.18" y1="696.18" x2="1515.23" y2="1298.97" gradientUnits="userSpaceOnUse">
      <stop offset=".02" stop-color="#00f100"/>
      <stop offset=".4" stop-color="#00be00"/>
      <stop offset="1" stop-color="#008b00"/>
    </linearGradient>
    <linearGradient id="linear-gradient-2" x1="904.66" y1="271.19" x2="1442.56" y2="581.75" xlink:href="#linear-gradient"/>
    <linearGradient id="linear-gradient-3" x1="627.93" y1="436.19" x2="738.55" y2="500.06" xlink:href="#linear-gradient"/>
  </defs>
  <path class="cls-1" d="M1362.62,719.33c-30.72,0-55.62,24.9-55.62,55.62,0,23.15,14.15,42.98,34.26,51.35v78.16h-203.28v-76.31l83.72-83.72v-80.23c18.91-8.88,32.04-28.04,32.04-50.32,0-30.72-24.9-55.62-55.62-55.62s-55.62,24.9-55.62,55.62c0,22.27,13.13,41.44,32.03,50.32v60.69l-83.72,83.72v84.5c-5.26-25.04-23.43-45.36-47.17-53.63v-410.63c18.91-8.88,32.04-28.04,32.04-50.32,0-30.72-24.9-55.62-55.62-55.62s-55.62,24.9-55.62,55.62c0,22.27,13.13,41.44,32.03,50.32v410.58c-24.57,8.5-43.2,29.93-47.76,56.14v-306.3l-95.51-95.51V236.91c18.91-8.88,32.04-28.04,32.04-50.32,0-30.72-24.9-55.62-55.62-55.62s-55.62,24.9-55.62,55.62c0,22.27,13.13,41.43,32.03,50.32v276.4l95.51,95.51v295.64h-202.69v-183.17c20.73-8.08,35.44-28.19,35.44-51.79,0-30.72-24.9-55.62-55.62-55.62s-55.62,24.9-55.62,55.62c0,20.92,11.56,39.12,28.63,48.61v233.51h252.85l-242.8,140.61c-6.43,3.71-9.97,10.49-9.97,17.42,0,.24-.08.56-.08.81v241.28s.08.73.08,1.05c-.32,3.95.4,8.15,2.57,11.86,3.7,6.45,10.45,10.08,17.45,10.08,3.38,0,6.84-.89,10.05-2.66l74.54-43.16c9.65-5.57,12.95-17.91,7.4-27.59-5.55-9.68-17.85-12.91-27.5-7.42l-44.39,25.73v-198.28l277.99-161.01c13.03,12.58,30.64,20.33,50.1,20.33s37.07-7.74,50.1-20.33l258.78,149.88-99.31,57.52-199.51-115.51s-.4-.16-.64-.24c-.64-.32-1.29-.65-1.93-.89-.56-.24-1.21-.48-1.77-.65-.64-.16-1.21-.32-1.85-.4-.64-.16-1.29-.24-1.93-.32h-3.78c-.64,0-1.37.24-2.01.32-.64.16-1.21.24-1.85.4-.64.16-1.21.4-1.77.65-.64.24-1.29.56-1.93.89-.16.08-.4.16-.56.24l-204.17,118.02c-.8.48-1.53,1.05-2.25,1.61-4.02,1.61-7.56,4.44-9.89,8.55-5.55,9.68-2.25,21.94,7.4,27.59l123.12,71.31c-3.38,10.16-5.31,20.97-5.31,32.19,0,55.9,45.35,101.48,101.16,101.48,30.07,0,57.09-13.31,75.67-34.36l92.96,53.89-168.63,97.04-198.87-115.19s-.4-.16-.64-.24c-.64-.32-1.29-.56-1.93-.89-.56-.24-1.21-.48-1.77-.65-.56-.16-1.21-.32-1.85-.4-.64-.16-1.29-.24-2.01-.32h-3.86c-.64,0-1.37.24-2.01.32-.64.16-1.21.24-1.77.4-.64.16-1.21.4-1.85.73-.64.24-1.29.48-1.85.81-.24.08-.4.16-.64.32l-139.28,80.67c-6.51,3.79-10.05,10.73-9.97,17.83-.08,7.1,3.38,14.04,9.97,17.83l287.08,166.26c-.8,4.27-1.21,8.63-1.21,13.07,0,40.01,32.49,72.59,72.37,72.59s72.37-32.58,72.37-72.59c0-4.44-.48-8.8-1.21-13.07l287.16-166.26c6.19-3.63,10.05-10.24,10.05-17.5v-241.28c0-.56-.08-1.05-.16-1.53l.08-.24c.4-4.11-.32-8.31-2.57-12.1-5.55-9.68-17.85-12.99-27.5-7.42l-74.55,43.16c-9.65,5.57-12.95,17.91-7.4,27.59,3.7,6.45,10.45,10.08,17.45,10.08,3.38,0,6.84-.89,10.05-2.66l44.39-25.73v198.28l-275.02,159.31c-13.27-14.36-32.09-23.39-53.07-23.39s-39.89,9.03-53.07,23.39l-255.56-148.02,99.71-57.76,198.87,115.19c1.21.65,2.49,1.13,3.78,1.53,2.01.65,4.1,1.13,6.19,1.13s4.18-.4,6.19-1.13c1.29-.4,2.57-.89,3.78-1.53l208.84-120.19c1.37-.81,2.57-1.86,3.7-2.9.32-.32.56-.65.88-.97.88-.97,1.61-1.94,2.33-2.98.16-.24.32-.4.48-.65.08-.16.16-.4.24-.57.32-.65.64-1.29.88-1.94.24-.56.48-1.13.64-1.78s.32-1.29.4-1.94c.16-.65.24-1.29.32-1.94v-3.87c0-.65-.16-1.29-.32-1.94-.16-.64-.24-1.29-.4-1.94-.16-.57-.4-1.13-.64-1.69-.24-.65-.56-1.37-.88-2.02-.08-.16-.16-.4-.24-.57-.16-.32-.48-.56-.64-.89-.4-.65-.8-1.21-1.29-1.77-.4-.48-.88-.97-1.29-1.45-.4-.48-.88-.89-1.45-1.29-.56-.48-1.21-.89-1.77-1.29-.32-.24-.56-.48-.88-.65l-123.12-71.31c3.38-10.17,5.31-20.97,5.31-32.19,0-55.98-45.35-101.48-101.16-101.48-30.08,0-57.09,13.31-75.67,34.36l-93.04-53.89,168.71-97.53,194.85,112.85c3.78,3.79,8.93,5.81,14.15,5.81,3.38,0,6.84-.89,10.05-2.66l139.28-80.67c6.59-3.79,10.13-10.81,9.97-17.99.16-7.1-3.38-14.12-9.97-17.99l-242.8-140.61h252.98v-127.44c17.71-9.3,29.81-27.85,29.81-49.24,0-30.72-24.9-55.62-55.62-55.62ZM948.72,926.05v-5.75c.3,1.73.66,3.44,1.07,5.13l-1.07.62ZM1020.16,940.27c-17.77,0-32.17-14.44-32.17-32.27s14.39-32.27,32.17-32.27,32.17,14.44,32.17,32.27-14.39,32.27-32.17,32.27ZM1020.16,1677.57c17.77,0,32.17,14.44,32.17,32.27s-14.39,32.27-32.17,32.27-32.17-14.44-32.17-32.27,14.39-32.27,32.17-32.27ZM1020.16,1258.26c29.19,0,52.91,23.8,52.91,53.08s-23.72,53.08-52.91,53.08-52.91-23.8-52.91-53.08,23.72-53.08,52.91-53.08ZM1090.81,922.7v3.08l-.61-.36c.22-.9.42-1.81.61-2.73Z"/>
  <path class="cls-2" d="M1341.26,493.03v181.45c6.9-1.46,14.03-2.32,21.36-2.32,8.92,0,17.55,1.21,25.81,3.35v-146.22l.25.19h77.39l-446-342.89-119.69,92.02v59.5l119.69-92.02,321.2,246.94Z"/>
  <path class="cls-3" d="M651.7,529.29v41.08c8.61-2.35,17.65-3.65,26.99-3.65,6.91,0,13.64.76,20.18,2.07v-75.76l60.01-46.13v-59.5l-184.81,142.08h77.39l.24-.19Z"/>
</svg>