<svg width="304" height="80" viewBox="0 0 304 80" fill="none" xmlns="http://www.w3.org/2000/svg">
<g clip-path="url(#clip0_1_532)">
<path d="M33.4514 0H0V80L33.4514 0Z" fill="#FA0C00"/>
<path d="M56.9872 0H90.395V80L56.9872 0Z" fill="#FA0C00"/>
<path d="M45.2193 29.4851L66.5105 80H52.5415L46.1781 63.9171H30.5966L45.2193 29.4851Z" fill="#FA0C00"/>
<path d="M144.968 50.8749L148.913 62.1852C149.044 62.4685 149.24 62.5993 149.588 62.5993H157.172C157.586 62.5993 157.652 62.4031 157.586 61.9891L141.917 18.4696C141.852 18.1209 141.787 18.0555 141.438 18.0555H132.024C131.762 18.0555 131.61 18.2517 131.61 18.535C131.479 20.8232 131.283 21.5205 130.999 22.1961L117.031 61.9237C116.965 62.4031 117.118 62.5993 117.51 62.5993H124.287C124.701 62.5993 124.898 62.4685 125.05 62.0544L128.777 50.8749H144.968ZM130.934 43.4873C132.983 37.2983 135.685 29.3658 136.774 24.833H136.84C138.191 29.5837 141.373 38.9981 142.811 43.4873H130.934Z" fill="#FA0C00"/>
<path d="M177.73 63.2748C181.805 63.2748 186.141 62.5338 190.544 60.6379C190.892 60.5071 190.958 60.3546 190.958 60.0277C190.827 58.8073 190.674 57.0421 190.674 55.691V14.7212C190.674 14.4597 190.674 14.329 190.347 14.329H182.96C182.677 14.329 182.546 14.4597 182.546 14.8084V28.6902C181.391 28.5594 180.584 28.4941 179.626 28.4941C167.705 28.4941 160.383 36.3611 160.383 46.1895C160.383 57.587 167.901 63.2748 177.73 63.2748ZM182.546 55.691C181.325 56.0833 179.974 56.2358 178.601 56.2358C173.197 56.2358 168.773 53.1849 168.773 45.7755C168.773 39.2159 173.328 35.3369 179.364 35.3369C180.584 35.3369 181.652 35.4676 182.546 35.8163V55.691Z" fill="#FA0C00"/>
<path d="M214.526 28.494C204.349 28.494 198.051 36.2957 198.051 45.928C198.051 54.536 203.063 63.2747 214.373 63.2747C223.94 63.2747 230.652 56.2358 230.652 45.71C230.652 36.4265 224.964 28.494 214.526 28.494ZM214.112 35.3368C219.865 35.3368 222.306 40.2837 222.306 45.928C222.306 52.9015 218.71 56.3665 214.526 56.3665C209.361 56.3665 206.31 52.0298 206.31 45.7754C206.31 39.3466 209.557 35.3368 214.112 35.3368Z" fill="#FA0C00"/>
<path d="M238.29 14.329C238.006 14.329 237.81 14.4597 237.81 14.8084V61.1827C237.81 61.3789 238.006 61.7275 238.29 61.7929C241.537 62.7953 244.936 63.2748 248.445 63.2748C258.491 63.2748 268.254 57.0421 268.254 44.4897C268.254 35.4023 262.022 28.4941 252.259 28.4941C250.014 28.4941 247.922 28.8427 246.091 29.4529L246.004 14.8738C246.004 14.3944 245.873 14.329 245.394 14.329H238.29ZM259.908 45.3178C259.908 52.8362 254.765 56.3666 249.208 56.3666C248.053 56.3666 247.029 56.3012 246.091 56.0179V36.2304C247.159 35.8163 248.445 35.4676 250.82 35.4676C256.181 35.4676 259.908 38.8673 259.908 45.3178Z" fill="#FA0C00"/>
<path d="M295.825 47.7585C299.137 47.7585 301.861 47.6931 302.798 47.4752C303.147 47.4098 303.278 47.2791 303.343 46.9958C303.539 46.2548 303.627 44.7076 303.627 42.8116C303.627 36.3611 299.748 28.494 289.723 28.494C279.481 28.494 273.793 36.8405 273.793 46.2548C273.793 54.6013 278.195 63.2747 290.529 63.2747C295.149 63.2747 298.135 62.5338 300.706 61.3134C300.968 61.1826 301.099 60.9647 301.099 60.5725V54.9282C301.099 54.6013 300.902 54.536 300.706 54.6667C298.135 55.7563 295.345 56.3012 292.294 56.3012C285.386 56.3012 282.248 52.4875 282.052 47.7585H295.825ZM282.052 41.9182C282.597 38.6057 284.689 35.0099 289.374 35.0099C294.539 35.0099 295.89 39.3466 295.89 41.308C295.89 41.3733 295.89 41.6566 295.89 41.8528C295.607 41.9182 294.735 41.9182 292.164 41.9182H282.052Z" fill="#FA0C00"/>
</g>
<defs>
<clipPath id="clip0_1_532">
<rect width="303.627" height="80" fill="white"/>
</clipPath>
</defs>
</svg>
