<?xml version="1.0" encoding="UTF-8"?>
<svg id="Layer_2" data-name="Layer 2" xmlns="http://www.w3.org/2000/svg" xmlns:xlink="http://www.w3.org/1999/xlink" version="1.1" viewBox="0 0 2040 2040">
  <defs>
    <style>
      .cls-1 {
        fill: url(#linear-gradient);
        stroke-width: 0px;
      }
    </style>
    <linearGradient id="linear-gradient" x1="373.02" y1="610.57" x2="1598.42" y2="1318.06" gradientUnits="userSpaceOnUse">
      <stop offset="0" stop-color="#0ef100"/>
      <stop offset="1" stop-color="#078e00"/>
    </linearGradient>
  </defs>
  <path class="cls-1" d="M1393.01,429.51c5.9-50.38,51.51-86.44,101.89-80.54,50.38,5.9,86.44,51.51,80.54,101.89-5.9,50.38-51.51,86.44-101.89,80.54-50.38-5.9-86.44-51.51-80.54-101.89ZM944.02,1071.15c38.59,4.52,73.54-23.11,78.06-61.7,4.52-38.59-23.11-73.54-61.7-78.06-11.13-1.3-21.95.08-31.83,3.62l-146-187.99c4.34-7.2,7.26-15.42,8.31-24.32,3.91-33.41-20.01-63.67-53.42-67.58-33.41-3.91-63.67,20.01-67.58,53.42-3.91,33.41,20.01,63.67,53.42,67.58,8.53,1,16.85.17,24.58-2.15l146,187.99c-6.09,9.02-10.18,19.58-11.54,31.13-4.52,38.59,23.11,73.54,61.7,78.06ZM1158.25,806.02c-26.13-3.06-49.79,15.64-52.84,41.77-3.06,26.13,15.64,49.79,41.77,52.84,26.13,3.06,49.79-15.64,52.84-41.77,3.06-26.13-15.64-49.79-41.77-52.84ZM1467.37,1343.64c-33.41-3.91-63.67,20.01-67.58,53.42-3.91,33.41,20.01,63.67,53.42,67.58,33.41,3.91,63.67-20.01,67.58-53.42,3.91-33.41-20.01-63.67-53.42-67.58ZM1564.66,980.01c-5.86-.69-11.62-.57-17.19.24l-64.57-124.65c28.04-20.93,47.77-52.88,52.16-90.38,8.47-72.38-43.34-137.92-115.72-146.39-72.38-8.47-137.92,43.34-146.39,115.72-8.47,72.38,43.34,137.92,115.72,146.39,19.18,2.24,37.87.22,55.15-5.26l64.77,125.04c-9.19,9.9-15.43,22.7-17.12,37.15-.24,2.04-.37,4.06-.42,6.07l-212.21,66.8c-13.69-21.91-36.83-37.64-64.49-40.87-48.33-5.66-92.09,28.94-97.75,77.27-5.66,48.33,28.94,92.09,77.27,97.75s92.09-28.94,97.75-77.27c.59-5.06.72-10.06.46-14.99l212.6-66.92c10.47,13.63,26.22,23.19,44.64,25.35,36.19,4.23,68.95-21.67,73.19-57.85,4.23-36.19-21.67-68.95-57.85-73.19ZM1407.05,1624.23c-19.81-2.32-38.85,2.13-54.82,11.49l-144.01-145.17c4.14-7.83,6.95-16.53,8.04-25.86,4.73-40.38-24.18-76.95-64.56-81.68-21.63-2.53-42.16,4.6-57.3,17.96l-168.59-101.99c1.88-5.84,3.23-11.94,3.97-18.27,6.14-52.46-31.41-99.96-83.86-106.1-52.46-6.14-99.96,31.41-106.1,83.86-6.14,52.46,31.41,99.96,83.86,106.1,30.53,3.57,59.36-7.67,79.36-28.02l168.62,102.01c-.72,2.93-1.28,5.93-1.64,9.01-2.69,23.03,5.56,44.8,20.62,60.15l-102.42,191.54c-1.04-.17-2.09-.33-3.15-.45-.98-.11-1.95-.2-2.92-.27-10.4-23.04-25.07-41.3-44-54.46-45.48-31.63-98.77-21.49-114.02-17.64-109.33,27.66-180.36,26.65-200.1,14.02-33.59-21.5-34.35-78.4-33.12-101.86.93-17.75-8.69-34.61-24.51-42.95-7.91-4.17-19.55-12.12-30.07-26.26-14.76-19.84-4.65-42.06-4.32-42.78,3.03-6.1,3.05-13.25.07-19.37-2.98-6.12-8.63-10.52-15.29-11.9-22.45-4.65-27.09-15.78-28.61-19.44-6.16-14.78-.19-34.37,2.48-38.47,10.02-13.93,20.76-34.63,15.01-54.11-3.45-11.67-12.26-20.79-24.81-25.7-.53-.21-1.08-.4-1.62-.56-55.16-16.71-81.98-36.81-79.73-59.77,2.41-7.76,22.8-28.45,37.72-43.59,39.94-40.53,89.65-90.97,88.13-146.34-.76-27.73-8.77-62.01-18.04-101.7-17.59-75.28-39.48-168.98-27.19-274.01,8.44-72.15,57.97-186.72,169.77-272.19,77.38-59.15,209.07-122.02,412.61-110.85,4.81,36.58,30.81,67.45,66.53,78.15l-10.95,189.86c-15.48,4.04-29.1,13.19-38.7,25.75l-192.9-68.03c-1.76-26.14-21.89-48.14-48.86-51.3-30.42-3.56-57.97,18.22-61.53,48.64-3.56,30.42,18.22,57.97,48.64,61.53,18.28,2.14,35.49-4.91,47.11-17.45l192.94,68.04c-.99,36.53,26.04,68.41,63.03,72.74,39.15,4.58,74.59-23.44,79.18-62.59,3.86-32.99-15.44-63.36-45.04-74.83l10.95-189.82c39.99-7.13,72.31-39.68,77.28-82.1,6.07-51.87-31.06-98.83-82.92-104.9-44.76-5.24-85.85,21.71-100.17,62.52-218.02-12.51-360.12,55.7-443.86,119.72-122.58,93.7-176.83,217.43-186.72,301.98-13.18,112.65,10.64,214.64,28.04,289.11,8.73,37.36,16.27,69.63,16.91,92.91,1,36.66-43.21,81.53-75.5,114.3-27.71,28.12-47.73,48.43-50.05,69.17-7.64,68.29,74.23,95.94,106.78,105.91-.99,2.9-3.19,7.61-7.66,13.83-10.19,14.17-19.78,49.2-8.01,79.43,5.19,13.33,16.02,29.66,38.56,39.99-2.67,17.21-1.65,41.31,15.55,64.43,15.43,20.74,32.89,32.59,44.82,38.88.73.39,1.18,1.09,1.14,1.79-2.03,38.68,2.19,108.44,53.3,141.16,51.44,32.94,181.17,5.08,234.56-8.42,10.7-2.71,47.94-9.9,78.17,11.12,10.47,7.28,19.08,17.3,25.84,29.94-15.85,10.74-27.13,28.04-29.53,48.56-4.38,37.43,22.41,71.32,59.84,75.7,37.43,4.38,71.32-22.41,75.7-59.84,2.43-20.74-4.73-40.38-17.94-54.52l102.43-191.55c1.71.32,3.44.61,5.19.82,15.19,1.78,29.83-1.2,42.45-7.76l144,145.17c-6.19,10.36-10.36,22.16-11.85,34.93-5.66,48.39,28.97,92.21,77.36,97.87,48.39,5.66,92.21-28.97,97.87-77.36,5.66-48.39-28.97-92.21-77.36-97.87Z"/>
</svg>