<svg width="113" height="16" viewBox="0 0 113 16" fill="none" xmlns="http://www.w3.org/2000/svg">
<path d="M9.68048 0.299999H12.7045L7.65398 8.3745V15H5.09198V8.3745L0.04148 0.299999H3.06548L6.37298 5.5815L9.68048 0.299999ZM19.6839 15.273C18.6899 15.273 17.7554 15.077 16.8804 14.685C16.0054 14.286 15.2354 13.7365 14.5704 13.0365C13.9054 12.3365 13.3839 11.528 13.0059 10.611C12.6279 9.687 12.4389 8.7 12.4389 7.65C12.4389 6.6 12.6279 5.6165 13.0059 4.6995C13.3839 3.7755 13.9054 2.9635 14.5704 2.2635C15.2354 1.5635 16.0054 1.0175 16.8804 0.625499C17.7554 0.226499 18.6899 0.0269988 19.6839 0.0269988C20.6849 0.0269988 21.6229 0.226499 22.4979 0.625499C23.3729 1.0175 24.1429 1.5635 24.8079 2.2635C25.4729 2.9635 25.9909 3.7755 26.3619 4.6995C26.7399 5.6165 26.9289 6.6 26.9289 7.65C26.9289 8.7 26.7399 9.687 26.3619 10.611C25.9909 11.528 25.4729 12.3365 24.8079 13.0365C24.1429 13.7365 23.3729 14.286 22.4979 14.685C21.6229 15.077 20.6849 15.273 19.6839 15.273ZM19.6839 12.711C20.3279 12.711 20.9334 12.578 21.5004 12.312C22.0674 12.046 22.5644 11.682 22.9914 11.22C23.4254 10.751 23.7614 10.212 23.9994 9.603C24.2444 8.994 24.3669 8.343 24.3669 7.65C24.3669 6.957 24.2444 6.306 23.9994 5.697C23.7544 5.081 23.4149 4.542 22.9809 4.08C22.5539 3.618 22.0569 3.254 21.4899 2.988C20.9299 2.722 20.3279 2.589 19.6839 2.589C19.0399 2.589 18.4344 2.722 17.8674 2.988C17.3004 3.254 16.7999 3.6215 16.3659 4.0905C15.9389 4.5525 15.6029 5.088 15.3579 5.697C15.1199 6.306 15.0009 6.957 15.0009 7.65C15.0009 8.35 15.1234 9.0045 15.3684 9.6135C15.6134 10.2225 15.9494 10.7615 16.3764 11.2305C16.8104 11.6925 17.3074 12.0565 17.8674 12.3225C18.4344 12.5815 19.0399 12.711 19.6839 12.711ZM34.1155 15.273C32.9395 15.273 31.907 14.986 31.018 14.412C30.136 13.838 29.45 13.068 28.96 12.102C28.47 11.129 28.225 10.051 28.225 8.868V0.299999H30.787V8.868C30.787 9.568 30.9165 10.212 31.1755 10.8C31.4415 11.381 31.8195 11.8465 32.3095 12.1965C32.8065 12.5395 33.4085 12.711 34.1155 12.711C34.8295 12.711 35.4315 12.5395 35.9215 12.1965C36.4115 11.8465 36.7825 11.381 37.0345 10.8C37.2935 10.212 37.423 9.568 37.423 8.868V0.299999H39.985V8.868C39.985 9.757 39.845 10.59 39.565 11.367C39.285 12.137 38.886 12.816 38.368 13.404C37.85 13.992 37.2305 14.4505 36.5095 14.7795C35.7955 15.1085 34.9975 15.273 34.1155 15.273ZM41.6223 15V0.299999H47.2608C48.0588 0.299999 48.7798 0.499499 49.4238 0.898499C50.0678 1.2975 50.5788 1.833 50.9568 2.505C51.3348 3.17 51.5238 3.9085 51.5238 4.7205C51.5238 5.3855 51.4013 5.998 51.1563 6.558C50.9183 7.111 50.5823 7.5905 50.1483 7.9965C49.7213 8.4025 49.2278 8.7105 48.6678 8.9205L52.1853 15H49.2348L45.8328 9.1515H44.1843V15H41.6223ZM44.1843 6.5895H46.9668C47.3308 6.5895 47.6633 6.4985 47.9643 6.3165C48.2653 6.1345 48.5068 5.8895 48.6888 5.5815C48.8708 5.2735 48.9618 4.9305 48.9618 4.5525C48.9618 4.1675 48.8708 3.821 48.6888 3.513C48.5068 3.205 48.2653 2.96 47.9643 2.778C47.6633 2.596 47.3308 2.505 46.9668 2.505H44.1843V6.5895ZM58.1426 15V0.299999H60.7046V12.438H66.8261V15H58.1426ZM74.1813 15.273C73.1873 15.273 72.2528 15.077 71.3778 14.685C70.5028 14.286 69.7328 13.7365 69.0678 13.0365C68.4028 12.3365 67.8813 11.528 67.5033 10.611C67.1253 9.687 66.9363 8.7 66.9363 7.65C66.9363 6.6 67.1253 5.6165 67.5033 4.6995C67.8813 3.7755 68.4028 2.9635 69.0678 2.2635C69.7328 1.5635 70.5028 1.0175 71.3778 0.625499C72.2528 0.226499 73.1873 0.0269988 74.1813 0.0269988C75.1823 0.0269988 76.1203 0.226499 76.9953 0.625499C77.8703 1.0175 78.6403 1.5635 79.3053 2.2635C79.9703 2.9635 80.4883 3.7755 80.8593 4.6995C81.2373 5.6165 81.4263 6.6 81.4263 7.65C81.4263 8.7 81.2373 9.687 80.8593 10.611C80.4883 11.528 79.9703 12.3365 79.3053 13.0365C78.6403 13.7365 77.8703 14.286 76.9953 14.685C76.1203 15.077 75.1823 15.273 74.1813 15.273ZM74.1813 12.711C74.8253 12.711 75.4308 12.578 75.9978 12.312C76.5648 12.046 77.0618 11.682 77.4888 11.22C77.9228 10.751 78.2588 10.212 78.4968 9.603C78.7418 8.994 78.8643 8.343 78.8643 7.65C78.8643 6.957 78.7418 6.306 78.4968 5.697C78.2518 5.081 77.9123 4.542 77.4783 4.08C77.0513 3.618 76.5543 3.254 75.9873 2.988C75.4273 2.722 74.8253 2.589 74.1813 2.589C73.5373 2.589 72.9318 2.722 72.3648 2.988C71.7978 3.254 71.2973 3.6215 70.8633 4.0905C70.4363 4.5525 70.1003 5.088 69.8553 5.697C69.6173 6.306 69.4983 6.957 69.4983 7.65C69.4983 8.35 69.6208 9.0045 69.8658 9.6135C70.1108 10.2225 70.4468 10.7615 70.8738 11.2305C71.3078 11.6925 71.8048 12.0565 72.3648 12.3225C72.9318 12.5815 73.5373 12.711 74.1813 12.711ZM89.5264 15.273C88.5044 15.273 87.5524 15.0735 86.6704 14.6745C85.7954 14.2755 85.0324 13.726 84.3814 13.026C83.7304 12.319 83.2194 11.507 82.8484 10.59C82.4844 9.666 82.3024 8.679 82.3024 7.629C82.3024 6.523 82.4984 5.508 82.8904 4.584C83.2894 3.66 83.8319 2.8585 84.5179 2.1795C85.2039 1.5005 85.9809 0.975499 86.8489 0.604499C87.7239 0.2335 88.6339 0.0479997 89.5789 0.0479997C90.6359 0.0479997 91.6614 0.2965 92.6554 0.7935C93.6564 1.2835 94.5384 2.043 95.3014 3.072L93.0124 4.3005C92.5434 3.7265 92.0044 3.2995 91.3954 3.0195C90.7934 2.7325 90.1774 2.589 89.5474 2.589C88.9314 2.589 88.3399 2.715 87.7729 2.967C87.2129 3.219 86.7124 3.576 86.2714 4.038C85.8374 4.493 85.4944 5.032 85.2424 5.655C84.9904 6.271 84.8644 6.9465 84.8644 7.6815C84.8644 8.3745 84.9869 9.029 85.2319 9.645C85.4769 10.254 85.8129 10.7895 86.2399 11.2515C86.6739 11.7065 87.1744 12.0635 87.7414 12.3225C88.3084 12.5815 88.9174 12.711 89.5684 12.711C90.0024 12.711 90.4259 12.6445 90.8389 12.5115C91.2589 12.3715 91.6509 12.172 92.0149 11.913C92.3859 11.654 92.7149 11.339 93.0019 10.968C93.2959 10.597 93.5409 10.177 93.7369 9.708H91.0594V7.4715H96.7504C96.7784 8.5425 96.6104 9.547 96.2464 10.485C95.8824 11.423 95.3679 12.2525 94.7029 12.9735C94.0379 13.6945 93.2644 14.258 92.3824 14.664C91.5004 15.07 90.5484 15.273 89.5264 15.273ZM104.893 15.273C103.899 15.273 102.964 15.077 102.089 14.685C101.214 14.286 100.444 13.7365 99.7795 13.0365C99.1145 12.3365 98.593 11.528 98.215 10.611C97.837 9.687 97.648 8.7 97.648 7.65C97.648 6.6 97.837 5.6165 98.215 4.6995C98.593 3.7755 99.1145 2.9635 99.7795 2.2635C100.444 1.5635 101.214 1.0175 102.089 0.625499C102.964 0.226499 103.899 0.0269988 104.893 0.0269988C105.894 0.0269988 106.832 0.226499 107.707 0.625499C108.582 1.0175 109.352 1.5635 110.017 2.2635C110.682 2.9635 111.2 3.7755 111.571 4.6995C111.949 5.6165 112.138 6.6 112.138 7.65C112.138 8.7 111.949 9.687 111.571 10.611C111.2 11.528 110.682 12.3365 110.017 13.0365C109.352 13.7365 108.582 14.286 107.707 14.685C106.832 15.077 105.894 15.273 104.893 15.273ZM104.893 12.711C105.537 12.711 106.142 12.578 106.709 12.312C107.276 12.046 107.773 11.682 108.2 11.22C108.634 10.751 108.97 10.212 109.208 9.603C109.453 8.994 109.576 8.343 109.576 7.65C109.576 6.957 109.453 6.306 109.208 5.697C108.963 5.081 108.624 4.542 108.19 4.08C107.763 3.618 107.266 3.254 106.699 2.988C106.139 2.722 105.537 2.589 104.893 2.589C104.249 2.589 103.643 2.722 103.076 2.988C102.509 3.254 102.009 3.6215 101.575 4.0905C101.148 4.5525 100.812 5.088 100.567 5.697C100.329 6.306 100.21 6.957 100.21 7.65C100.21 8.35 100.332 9.0045 100.577 9.6135C100.822 10.2225 101.158 10.7615 101.585 11.2305C102.019 11.6925 102.516 12.0565 103.076 12.3225C103.643 12.5815 104.249 12.711 104.893 12.711Z" fill="white"/>
</svg>
